<svg width="56" height="58" viewBox="0 0 56 58" fill="none" xmlns="http://www.w3.org/2000/svg">
<path d="M30.8323 53.3952C30.8323 53.7676 30.759 54.1363 30.6165 54.4804C30.474 54.8244 30.2651 55.137 30.0018 55.4003C29.7385 55.6636 29.4259 55.8725 29.0819 56.015C28.7379 56.1575 28.3691 56.2308 27.9968 56.2308C27.2447 56.2308 26.5235 55.9321 25.9917 55.4003C25.46 54.8685 25.1612 54.1473 25.1612 53.3952C25.1612 52.6432 25.46 51.922 25.9917 51.3902C26.5235 50.8584 27.2447 50.5597 27.9968 50.5597C28.3691 50.5597 28.7379 50.633 29.0819 50.7755C29.4259 50.918 29.7385 51.1269 30.0018 51.3902C30.2651 51.6535 30.474 51.9661 30.6165 52.3101C30.759 52.6541 30.8323 53.0229 30.8323 53.3952V53.3952ZM34.9139 43.9401L40.5292 54.9735C41.0319 55.9609 42.2313 56.3512 43.2187 55.8485C44.2062 55.3458 44.5965 54.1445 44.0938 53.157L39.4023 43.9401L34.9139 43.9401ZM16.601 43.9401L11.9095 53.157C11.4068 54.1445 11.7971 55.3458 12.7845 55.8485C13.772 56.3512 14.9714 55.9609 15.4741 54.9735L21.0894 43.9401H16.601Z" fill="#7EDAD2"/>
<path d="M3.00102 1.93921H53.002C54.11 1.93921 55.002 2.83123 55.002 3.93925C55.002 5.04727 54.11 5.93929 53.002 5.93929H3.00102C1.893 5.93929 1.00098 5.04727 1.00098 3.93925C1.00098 2.83123 1.893 1.93921 3.00102 1.93921V1.93921Z" fill="#7EDAD2"/>
<path d="M23.4015 27.667H27.0016V38.0308H23.4015V27.667ZM16.2014 29.667H19.8014V38.0308H16.2014V29.667ZM9.00122 31.6671H12.6013V38.0308H9.00122V31.6671Z" fill="#7EDAD2"/>
<path d="M2.9981 0.940438C1.35337 0.940438 0.00196078 2.29185 0.00196078 3.93659C0.00196078 5.58133 1.35337 6.94056 2.9981 6.94056V19.9389C2.9981 20.4912 3.44583 20.9389 3.99812 20.9389C4.55041 20.9389 4.99814 20.4912 4.99814 19.9389V6.94056H50.999V42.9354H4.99814V23.9389C4.99814 23.3866 4.55041 22.9389 3.99812 22.9389C3.44583 22.9389 2.9981 23.3866 2.9981 23.9389V42.9354H0.998074C0.86675 42.9359 0.736811 42.9623 0.615679 43.013C0.494547 43.0638 0.384593 43.1378 0.292095 43.2311C0.199597 43.3243 0.12637 43.4348 0.0765885 43.5563C0.0268073 43.6779 0.00144681 43.808 0.00196078 43.9393C0.00299048 44.2032 0.108265 44.456 0.294849 44.6426C0.481433 44.8291 0.734206 44.9344 0.998074 44.9354H15.0179L11.0158 52.7032C10.2694 54.1693 10.8618 55.9918 12.3284 56.7384C13.7941 57.4846 15.6155 56.8915 16.3616 55.4259L21.7016 44.9354H26.9966V50.1992C25.601 50.6355 24.5688 51.9324 24.5688 53.463C24.5688 55.3446 26.1209 56.8888 28.0025 56.8888C29.8841 56.8888 31.4264 55.3446 31.4264 53.463C31.4264 51.9302 30.3955 50.6316 28.9986 50.1973V44.9354H34.2956L39.6355 55.4259C40.3817 56.8915 42.2031 57.4846 43.6688 56.7384C45.1354 55.9918 45.7278 54.1693 44.9813 52.7032L40.8387 44.9354H54.9972C55.1285 44.936 55.2586 44.9106 55.3802 44.8608C55.5017 44.811 55.6122 44.7378 55.7054 44.6453C55.7987 44.5528 55.8728 44.4429 55.9235 44.3217C55.9742 44.2006 56.0006 44.0707 56.0011 43.9393C56.0016 43.8074 55.976 43.6766 55.9257 43.5545C55.8755 43.4325 55.8015 43.3216 55.7082 43.2283C55.6149 43.135 55.504 43.061 55.382 43.0108C55.2599 42.9605 55.1292 42.9349 54.9972 42.9354H52.9991V6.94056C54.6429 6.93946 56.0011 5.58066 56.0011 3.93659C56.0011 2.29185 54.6419 0.940438 52.9971 0.940438H44.7665C44.2142 0.938277 43.7647 1.38425 43.7626 1.93655C43.7606 2.4919 44.2112 2.94265 44.7665 2.94048H52.9971C53.5685 2.94048 54.0011 3.36528 54.0011 3.93659C54.0011 4.5079 53.5685 4.94052 52.9971 4.94052H2.9981C2.4268 4.94052 1.99417 4.5079 1.99417 3.93659C1.99417 3.36528 2.4268 2.94048 2.9981 2.94048H40.7645C41.3199 2.94266 41.7706 2.4919 41.7684 1.93655C41.7664 1.38425 41.3168 0.938274 40.7645 0.940438H2.9981ZM41.0008 10.8469C37.1466 10.8469 33.9948 13.9908 33.9948 17.8451C33.9948 21.6993 37.1466 24.8491 41.0008 24.8491C44.855 24.8491 47.999 21.6993 47.999 17.8451C47.999 13.9908 44.855 10.8469 41.0008 10.8469V10.8469ZM8.99822 11.9133C8.72634 11.9135 8.46567 12.0217 8.27342 12.2139C8.08116 12.4062 7.97305 12.6668 7.97281 12.9387C7.97305 13.2106 8.08116 13.4713 8.27342 13.6635C8.46567 13.8558 8.72634 13.9639 8.99822 13.9641C9.27011 13.9639 9.53078 13.8558 9.72303 13.6635C9.91528 13.4713 10.0234 13.2106 10.0236 12.9387C10.0234 12.6668 9.91528 12.4062 9.72303 12.2139C9.53078 12.0217 9.27011 11.9135 8.99822 11.9133V11.9133ZM13.0022 11.9387C12.8707 11.9379 12.7404 11.9631 12.6186 12.0128C12.4969 12.0624 12.3861 12.1356 12.2927 12.2282C12.1993 12.3207 12.125 12.4307 12.0741 12.552C12.0233 12.6732 11.9968 12.8033 11.9963 12.9348C11.9958 13.067 12.0215 13.1979 12.0719 13.3201C12.1223 13.4422 12.1964 13.5532 12.2899 13.6466C12.3834 13.7399 12.4946 13.8138 12.6168 13.8639C12.7391 13.9141 12.8701 13.9395 13.0022 13.9387H30.9987C31.13 13.9382 31.2599 13.9119 31.3811 13.8611C31.5022 13.8104 31.6121 13.7363 31.7046 13.6431C31.7971 13.5499 31.8704 13.4393 31.9202 13.3178C31.9699 13.1963 31.9953 13.0661 31.9948 12.9348C31.9937 12.6709 31.8885 12.4182 31.7019 12.2316C31.5153 12.045 31.2625 11.9397 30.9987 11.9387L13.0022 11.9387ZM39.9969 12.9465V17.5423L37.45 21.3744C36.5517 20.4707 35.9968 19.2262 35.9968 17.8451C35.9968 15.4157 37.7079 13.4072 39.9969 12.9465ZM41.9969 12.9465C43.9661 13.34 45.5052 14.8781 45.8993 16.847H41.9969V12.9465ZM8.99822 16.9134C8.72634 16.9137 8.46567 17.0218 8.27342 17.214C8.08116 17.4063 7.97305 17.6669 7.97281 17.9388C7.97305 18.2107 8.08116 18.4714 8.27342 18.6636C8.46567 18.8559 8.72634 18.964 8.99822 18.9642C9.27011 18.964 9.53078 18.8559 9.72303 18.6636C9.91528 18.4714 10.0234 18.2107 10.0236 17.9388C10.0234 17.6669 9.91528 17.4063 9.72303 17.214C9.53078 17.0218 9.27011 16.9137 8.99822 16.9134V16.9134ZM13.0022 16.9368C12.8701 16.9361 12.7391 16.9615 12.6168 17.0117C12.4946 17.0618 12.3834 17.1357 12.2899 17.229C12.1964 17.3224 12.1223 17.4334 12.0719 17.5555C12.0215 17.6777 11.9958 17.8086 11.9963 17.9408C11.9968 18.0723 12.0233 18.2024 12.0741 18.3236C12.125 18.4449 12.1993 18.5549 12.2927 18.6474C12.3861 18.74 12.4969 18.8132 12.6186 18.8628C12.7404 18.9125 12.8707 18.9377 13.0022 18.9369H22.9966C23.1279 18.9374 23.258 18.912 23.3795 18.8623C23.5011 18.8125 23.6116 18.7392 23.7048 18.6468C23.798 18.5543 23.8721 18.4443 23.9229 18.3232C23.9736 18.202 24 18.0721 24.0005 17.9408C24.001 17.8088 23.9754 17.678 23.9251 17.556C23.8748 17.4339 23.8009 17.3231 23.7076 17.2297C23.6143 17.1364 23.5034 17.0625 23.3813 17.0122C23.2593 16.9619 23.1285 16.9363 22.9966 16.9368L13.0022 16.9368ZM41.534 18.849H45.8974C45.4359 21.1369 43.4295 22.8491 41.0008 22.8491C40.3312 22.8491 39.6967 22.7124 39.114 22.476L41.534 18.849ZM8.99822 21.9135C8.72634 21.9137 8.46567 22.0219 8.27342 22.2141C8.08116 22.4064 7.97305 22.667 7.97281 22.9389C7.97305 23.2108 8.08116 23.4715 8.27342 23.6637C8.46567 23.856 8.72634 23.9641 8.99822 23.9643C9.27011 23.9641 9.53078 23.856 9.72303 23.6637C9.91528 23.4715 10.0234 23.2108 10.0236 22.9389C10.0234 22.667 9.91528 22.4064 9.72303 22.2141C9.53078 22.0219 9.27011 21.9137 8.99822 21.9135V21.9135ZM13.0022 21.9408C12.8707 21.9401 12.7404 21.9652 12.6186 22.0149C12.4969 22.0646 12.3861 22.1378 12.2927 22.2303C12.1993 22.3228 12.125 22.4328 12.0741 22.5541C12.0233 22.6754 11.9968 22.8055 11.9963 22.9369C11.9955 23.0693 12.021 23.2004 12.0713 23.3228C12.1216 23.4452 12.1957 23.5564 12.2892 23.6499C12.3828 23.7435 12.494 23.8176 12.6164 23.8678C12.7387 23.9181 12.8699 23.9436 13.0022 23.9428H30.9987C31.1302 23.9423 31.2602 23.9159 31.3815 23.865C31.5028 23.8142 31.6128 23.7399 31.7053 23.6465C31.7978 23.5531 31.871 23.4423 31.9207 23.3205C31.9704 23.1988 31.9955 23.0685 31.9948 22.937C31.9937 22.6731 31.8885 22.4203 31.7019 22.2337C31.5153 22.0472 31.2625 21.9419 30.9987 21.9409L13.0022 21.9408ZM23.395 26.6655C23.1298 26.6666 22.8758 26.773 22.689 26.9612C22.5022 27.1495 22.3979 27.4042 22.3989 27.6695V38.0271C22.3979 38.2923 22.5022 38.5471 22.689 38.7353C22.8758 38.9236 23.1298 39.03 23.395 39.031H26.9966C27.1288 39.0318 27.2598 39.0063 27.382 38.9562C27.5043 38.906 27.6154 38.8321 27.7089 38.7388C27.8024 38.6454 27.8765 38.5345 27.9269 38.4123C27.9773 38.2902 28.003 38.1592 28.0025 38.0271V27.6695C28.003 27.5373 27.9773 27.4064 27.9269 27.2842C27.8765 27.1621 27.8024 27.0511 27.7089 26.9578C27.6154 26.8644 27.5043 26.7905 27.382 26.7404C27.2598 26.6902 27.1288 26.6648 26.9966 26.6656L23.395 26.6655ZM32.9987 26.9136C32.7268 26.9138 32.4661 27.0219 32.2739 27.2142C32.0816 27.4064 31.9735 27.6671 31.9733 27.939C31.9735 28.2109 32.0816 28.4716 32.2739 28.6638C32.4661 28.8561 32.7268 28.9642 32.9987 28.9644C33.2706 28.9642 33.5313 28.8561 33.7235 28.6638C33.9158 28.4716 34.0239 28.2109 34.0241 27.939C34.0239 27.6671 33.9158 27.4064 33.7235 27.2142C33.5313 27.0219 33.2706 26.9138 32.9987 26.9136V26.9136ZM37.0007 26.939C36.8694 26.9385 36.7393 26.9638 36.6177 27.0136C36.4962 27.0634 36.3857 27.1366 36.2925 27.2291C36.1992 27.3216 36.1251 27.4316 36.0744 27.5527C36.0237 27.6738 35.9973 27.8038 35.9968 27.9351C35.9963 28.0671 36.0219 28.1979 36.0722 28.3199C36.1224 28.4419 36.1964 28.5528 36.2897 28.6461C36.383 28.7395 36.4939 28.8134 36.6159 28.8637C36.738 28.9139 36.8688 28.9395 37.0007 28.939H41.0008C41.1321 28.9385 41.2621 28.9121 41.3832 28.8614C41.5043 28.8107 41.6143 28.7366 41.7068 28.6434C41.7993 28.5502 41.8725 28.4396 41.9223 28.3181C41.9721 28.1966 41.9974 28.0664 41.9969 27.9351C41.9959 27.6712 41.8906 27.4185 41.704 27.2319C41.5174 27.0453 41.2647 26.94 41.0008 26.939L37.0007 26.939ZM16.1976 28.6656C15.9334 28.6667 15.6803 28.7722 15.4937 28.9592C15.3071 29.1462 15.202 29.3995 15.2015 29.6637V38.0271C15.2005 38.2923 15.3048 38.5471 15.4916 38.7353C15.6784 38.9236 15.9324 39.03 16.1976 39.031H19.7992C19.9307 39.0308 20.0608 39.0046 20.1822 38.954C20.3035 38.9033 20.4137 38.8293 20.5064 38.736C20.5991 38.6428 20.6725 38.5322 20.7225 38.4105C20.7724 38.2889 20.7978 38.1586 20.7973 38.0271V29.6637C20.7967 29.3991 20.6914 29.1456 20.5044 28.9585C20.3173 28.7715 20.0638 28.6661 19.7992 28.6656H16.1976ZM24.3989 28.6656H26.0005V37.031H24.3989V28.6656ZM9.00017 30.6676C8.73496 30.6666 8.48021 30.7709 8.29194 30.9578C8.10368 31.1446 7.99732 31.3985 7.99626 31.6637V38.0271C7.99575 38.1591 8.02138 38.2899 8.07165 38.4119C8.12192 38.5339 8.19585 38.6448 8.28917 38.7381C8.3825 38.8314 8.49337 38.9054 8.6154 38.9556C8.73743 39.0059 8.86819 39.0315 9.00017 39.031H12.596C12.7279 39.0315 12.8587 39.0059 12.9807 38.9556C13.1028 38.9054 13.2136 38.8314 13.307 38.7381C13.4003 38.6448 13.4742 38.5339 13.5245 38.4119C13.5748 38.2899 13.6004 38.1591 13.5999 38.0271V31.6637C13.5988 31.3985 13.4925 31.1446 13.3042 30.9578C13.1159 30.7709 12.8612 30.6666 12.596 30.6676H9.00017ZM17.2015 30.6676H18.7953V37.031H17.2015V30.6676ZM32.9987 31.9137C32.7268 31.9139 32.4661 32.0221 32.2739 32.2143C32.0816 32.4066 31.9735 32.6672 31.9733 32.9391C31.9735 33.211 32.0816 33.4717 32.2739 33.6639C32.4661 33.8562 32.7268 33.9643 32.9987 33.9645C33.2706 33.9643 33.5313 33.8562 33.7235 33.6639C33.9158 33.4717 34.0239 33.211 34.0241 32.9391C34.0239 32.6672 33.9158 32.4066 33.7235 32.2143C33.5313 32.022 33.2706 31.9139 32.9987 31.9137V31.9137ZM37.0007 31.9371C36.8688 31.9366 36.738 31.9622 36.6159 32.0125C36.4939 32.0628 36.383 32.1367 36.2897 32.23C36.1964 32.3234 36.1224 32.4342 36.0722 32.5563C36.0219 32.6783 35.9963 32.8091 35.9968 32.9411C35.9973 33.0724 36.0237 33.2023 36.0744 33.3235C36.1251 33.4446 36.1992 33.5546 36.2925 33.647C36.3857 33.7395 36.4962 33.8128 36.6177 33.8626C36.7393 33.9123 36.8694 33.9377 37.0007 33.9372H46.9951C47.1264 33.9377 47.2565 33.9123 47.3781 33.8626C47.4996 33.8128 47.6101 33.7396 47.7033 33.6471C47.7966 33.5546 47.8706 33.4446 47.9214 33.3235C47.9721 33.2023 47.9985 33.0724 47.999 32.9411C47.9995 32.8091 47.9739 32.6783 47.9236 32.5563C47.8734 32.4342 47.7994 32.3234 47.7061 32.23C47.6128 32.1367 47.5019 32.0628 47.3799 32.0125C47.2578 31.9622 47.127 31.9366 46.9951 31.9371L37.0007 31.9371ZM9.9963 32.6676H11.5979V37.031H9.9963V32.6676ZM32.9987 36.9138C32.7268 36.914 32.4661 37.0221 32.2739 37.2144C32.0816 37.4066 31.9735 37.6673 31.9733 37.9392C31.9735 38.2111 32.0816 38.4718 32.2739 38.664C32.4661 38.8563 32.7268 38.9644 32.9987 38.9646C33.2706 38.9644 33.5313 38.8563 33.7235 38.664C33.9158 38.4718 34.0239 38.2111 34.0241 37.9392C34.0239 37.6673 33.9158 37.4066 33.7235 37.2144C33.5313 37.0221 33.2706 36.914 32.9987 36.9138V36.9138ZM37.0007 36.941C36.8694 36.9405 36.7393 36.9659 36.6177 37.0156C36.4962 37.0654 36.3857 37.1386 36.2925 37.2311C36.1992 37.3236 36.1251 37.4336 36.0744 37.5547C36.0237 37.6759 35.9973 37.8058 35.9968 37.9371C35.996 38.0693 36.0215 38.2003 36.0716 38.3225C36.1218 38.4448 36.1957 38.5559 36.289 38.6494C36.3824 38.743 36.4933 38.8171 36.6155 38.8674C36.7376 38.9178 36.8686 38.9435 37.0007 38.943H41.0008C41.1323 38.9425 41.2624 38.9161 41.3837 38.8652C41.5049 38.8144 41.615 38.7401 41.7075 38.6467C41.8 38.5532 41.8732 38.4425 41.9229 38.3207C41.9725 38.199 41.9977 38.0686 41.9969 37.9371C41.9959 37.6733 41.8906 37.4205 41.704 37.2339C41.5174 37.0473 41.2647 36.942 41.0008 36.941H37.0007ZM17.2093 44.9392H19.4555L14.5804 54.5195C14.3211 55.0287 13.7438 55.2162 13.2346 54.957C12.7263 54.6982 12.5382 54.118 12.7971 53.6093L17.2093 44.9392ZM36.5417 44.9392H38.7859L43.2001 53.6093C43.4591 54.118 43.2709 54.6982 42.7626 54.957C42.2534 55.2162 41.6761 55.0287 41.4168 54.5195L36.5417 44.9392ZM28.0025 52.0312C28.8032 52.0312 29.4264 52.6621 29.4264 53.4628C29.4264 54.2635 28.8032 54.8867 28.0025 54.8867C27.2018 54.8867 26.5689 54.2635 26.5689 53.4628C26.5689 52.6621 27.2018 52.0312 28.0025 52.0312Z" fill="#424241"/>
</svg>
